<mxfile host="app.diagrams.net" agent="Mozilla/5.0 (Macintosh; Intel Mac OS X 10.15; rv:129.0) Gecko/20100101 Firefox/129.0" version="24.7.4">
  <diagram name="Page-1" id="_hWhafWeYqHyf0HxmH6T">
    <mxGraphModel dx="1434" dy="587" grid="1" gridSize="10" guides="1" tooltips="1" connect="1" arrows="1" fold="1" page="1" pageScale="1" pageWidth="850" pageHeight="1100" math="0" shadow="0">
      <root>
        <mxCell id="0" />
        <mxCell id="1" parent="0" />
        <mxCell id="qtqpOS1n-RhSBQwYOSUx-18" value="" style="rounded=1;whiteSpace=wrap;html=1;" vertex="1" parent="1">
          <mxGeometry x="112.5" y="140" width="90" height="40" as="geometry" />
        </mxCell>
        <mxCell id="qtqpOS1n-RhSBQwYOSUx-1" value="" style="rounded=1;whiteSpace=wrap;html=1;" vertex="1" parent="1">
          <mxGeometry x="110" y="72" width="90" height="40" as="geometry" />
        </mxCell>
        <mxCell id="qtqpOS1n-RhSBQwYOSUx-3" value="" style="endArrow=none;html=1;rounded=0;fontFamily=Fira Sans;fontSource=https%3A%2F%2Ffonts.googleapis.com%2Fcss%3Ffamily%3DFira%2BSans;fontSize=20;" edge="1" parent="1">
          <mxGeometry width="50" height="50" relative="1" as="geometry">
            <mxPoint x="250" y="180" as="sourcePoint" />
            <mxPoint x="250" y="80" as="targetPoint" />
          </mxGeometry>
        </mxCell>
        <mxCell id="qtqpOS1n-RhSBQwYOSUx-4" value="" style="endArrow=none;html=1;rounded=0;fontFamily=Fira Sans;fontSource=https%3A%2F%2Ffonts.googleapis.com%2Fcss%3Ffamily%3DFira%2BSans;fontSize=20;" edge="1" parent="1">
          <mxGeometry width="50" height="50" relative="1" as="geometry">
            <mxPoint x="330" y="180" as="sourcePoint" />
            <mxPoint x="330" y="80" as="targetPoint" />
          </mxGeometry>
        </mxCell>
        <mxCell id="qtqpOS1n-RhSBQwYOSUx-5" value="" style="endArrow=none;html=1;rounded=0;fontFamily=Fira Sans;fontSource=https%3A%2F%2Ffonts.googleapis.com%2Fcss%3Ffamily%3DFira%2BSans;fontSize=20;" edge="1" parent="1">
          <mxGeometry width="50" height="50" relative="1" as="geometry">
            <mxPoint x="250" y="100" as="sourcePoint" />
            <mxPoint x="330" y="100" as="targetPoint" />
          </mxGeometry>
        </mxCell>
        <mxCell id="qtqpOS1n-RhSBQwYOSUx-6" value="" style="endArrow=none;html=1;rounded=0;fontFamily=Fira Sans;fontSource=https%3A%2F%2Ffonts.googleapis.com%2Fcss%3Ffamily%3DFira%2BSans;fontSize=20;" edge="1" parent="1">
          <mxGeometry width="50" height="50" relative="1" as="geometry">
            <mxPoint x="250" y="120" as="sourcePoint" />
            <mxPoint x="330" y="120" as="targetPoint" />
          </mxGeometry>
        </mxCell>
        <mxCell id="qtqpOS1n-RhSBQwYOSUx-7" value="" style="endArrow=none;html=1;rounded=0;fontFamily=Fira Sans;fontSource=https%3A%2F%2Ffonts.googleapis.com%2Fcss%3Ffamily%3DFira%2BSans;fontSize=20;" edge="1" parent="1">
          <mxGeometry width="50" height="50" relative="1" as="geometry">
            <mxPoint x="250" y="140" as="sourcePoint" />
            <mxPoint x="330" y="140" as="targetPoint" />
          </mxGeometry>
        </mxCell>
        <mxCell id="qtqpOS1n-RhSBQwYOSUx-8" value="" style="endArrow=none;html=1;rounded=0;fontFamily=Fira Sans;fontSource=https%3A%2F%2Ffonts.googleapis.com%2Fcss%3Ffamily%3DFira%2BSans;fontSize=20;" edge="1" parent="1">
          <mxGeometry width="50" height="50" relative="1" as="geometry">
            <mxPoint x="250" y="160" as="sourcePoint" />
            <mxPoint x="330" y="160" as="targetPoint" />
          </mxGeometry>
        </mxCell>
        <mxCell id="qtqpOS1n-RhSBQwYOSUx-9" value="..." style="text;html=1;align=center;verticalAlign=middle;resizable=0;points=[];autosize=1;strokeColor=none;fillColor=none;fontFamily=Fira Code;fontSource=https%3A%2F%2Ffonts.googleapis.com%2Fcss%3Ffamily%3DFira%2BCode;fontSize=20;" vertex="1" parent="1">
          <mxGeometry x="258" y="146" width="60" height="40" as="geometry" />
        </mxCell>
        <mxCell id="qtqpOS1n-RhSBQwYOSUx-10" value="&lt;div style=&quot;font-size: 20px;&quot;&gt;...&lt;/div&gt;" style="text;html=1;align=center;verticalAlign=middle;resizable=0;points=[];autosize=1;strokeColor=none;fillColor=none;fontFamily=Fira Code;fontSource=https%3A%2F%2Ffonts.googleapis.com%2Fcss%3Ffamily%3DFira%2BCode;fontSize=20;spacing=0;" vertex="1" parent="1">
          <mxGeometry x="258" y="70" width="60" height="30" as="geometry" />
        </mxCell>
        <mxCell id="qtqpOS1n-RhSBQwYOSUx-11" value="5" style="text;html=1;align=center;verticalAlign=middle;resizable=0;points=[];autosize=1;strokeColor=none;fillColor=none;fontSize=20;fontFamily=Fira Code;fontSource=https%3A%2F%2Ffonts.googleapis.com%2Fcss%3Ffamily%3DFira%2BCode;" vertex="1" parent="1">
          <mxGeometry x="268" y="110" width="40" height="40" as="geometry" />
        </mxCell>
        <mxCell id="qtqpOS1n-RhSBQwYOSUx-12" value="ptr_" style="rounded=0;whiteSpace=wrap;html=1;fontFamily=Fira Code;fontSource=https%3A%2F%2Ffonts.googleapis.com%2Fcss%3Ffamily%3DFira%2BCode;" vertex="1" parent="1">
          <mxGeometry x="140" y="77" width="35" height="30" as="geometry" />
        </mxCell>
        <mxCell id="qtqpOS1n-RhSBQwYOSUx-13" value="ptr_" style="rounded=0;whiteSpace=wrap;html=1;fontFamily=Fira Code;fontSource=https%3A%2F%2Ffonts.googleapis.com%2Fcss%3Ffamily%3DFira%2BCode;" vertex="1" parent="1">
          <mxGeometry x="140" y="145" width="35" height="30" as="geometry" />
        </mxCell>
        <mxCell id="qtqpOS1n-RhSBQwYOSUx-14" value="x" style="text;html=1;align=center;verticalAlign=middle;whiteSpace=wrap;rounded=0;fontSize=20;fontFamily=Fira Code;fontSource=https%3A%2F%2Ffonts.googleapis.com%2Fcss%3Ffamily%3DFira%2BCode;" vertex="1" parent="1">
          <mxGeometry x="100" y="77" width="60" height="30" as="geometry" />
        </mxCell>
        <mxCell id="qtqpOS1n-RhSBQwYOSUx-15" value="y" style="text;html=1;align=center;verticalAlign=middle;whiteSpace=wrap;rounded=0;fontSize=20;fontFamily=Fira Code;fontSource=https%3A%2F%2Ffonts.googleapis.com%2Fcss%3Ffamily%3DFira%2BCode;" vertex="1" parent="1">
          <mxGeometry x="100" y="141" width="60" height="30" as="geometry" />
        </mxCell>
        <mxCell id="qtqpOS1n-RhSBQwYOSUx-16" value="" style="endArrow=classic;html=1;rounded=0;fontColor=#B3B3B3;exitX=1;exitY=0.5;exitDx=0;exitDy=0;dashed=1;dashPattern=1 1;fillColor=#f8cecc;strokeColor=#b85450;" edge="1" parent="1" source="qtqpOS1n-RhSBQwYOSUx-12">
          <mxGeometry width="50" height="50" relative="1" as="geometry">
            <mxPoint x="700" y="140" as="sourcePoint" />
            <mxPoint x="250" y="130" as="targetPoint" />
          </mxGeometry>
        </mxCell>
        <mxCell id="qtqpOS1n-RhSBQwYOSUx-17" value="" style="endArrow=classic;html=1;rounded=0;fontColor=#B3B3B3;exitX=1;exitY=0.5;exitDx=0;exitDy=0;dashed=1;dashPattern=1 1;fillColor=#f8cecc;strokeColor=#b85450;" edge="1" parent="1" source="qtqpOS1n-RhSBQwYOSUx-13">
          <mxGeometry width="50" height="50" relative="1" as="geometry">
            <mxPoint x="185" y="80" as="sourcePoint" />
            <mxPoint x="250" y="130" as="targetPoint" />
          </mxGeometry>
        </mxCell>
        <mxCell id="qtqpOS1n-RhSBQwYOSUx-20" value="&lt;div style=&quot;font-size: 20px;&quot;&gt;heap&lt;/div&gt;&lt;div style=&quot;font-size: 20px;&quot;&gt;&lt;/div&gt;" style="text;whiteSpace=wrap;html=1;" vertex="1" parent="1">
          <mxGeometry x="264" y="55" width="80" height="50" as="geometry" />
        </mxCell>
      </root>
    </mxGraphModel>
  </diagram>
</mxfile>
